Coordinates
version=1
nRows=11
nColumns=32
inDegrees=yes

Units are S.I. units (second, meters, Newtons, ...)
If the header above contains a line with 'inDegrees', this indicates whether rotational values are in degrees (yes) or radians (no).

endheader
time	pelvis_tilt	pelvis_list	pelvis_rotation	pelvis_tx	pelvis_ty	pelvis_tz	hip_flexion_r	hip_adduction_r	hip_rotation_r	knee_angle_r	ankle_angle_r	subtalar_angle_r	mtp_angle_r	hip_flexion_l	hip_adduction_l	hip_rotation_l	knee_angle_l	ankle_angle_l	subtalar_angle_l	mtp_angle_l	lumbar_extension	lumbar_bending	lumbar_rotation	arm_flex_r	arm_add_r	arm_rot_r	elbow_flex_r	arm_flex_l	arm_add_l	arm_rot_l	elbow_flex_l
      4.32000000	      4.88660000	     -4.44972807	      8.58063149	      1.52856726	      0.88809854	     -0.22526105	     35.50811259	     -3.14924928	    -13.48553321	    -49.08672320	      6.01767354	    -21.77841681	      0.00000000	      6.19185190	     -4.76722209	      7.99260995	    -37.63498056	     23.85985768	    -14.93106340	      0.00000000	    -17.00166281	      3.04988048	     -9.33425362	      0.00000000	      0.00000000	      0.00000000	      0.00000000	      0.00000000	      0.00000000	      0.00000000	      0.00000000
      4.33000000	      5.45448074	     -4.14277650	      8.64768482	      1.53801073	      0.88798359	     -0.22510617	     34.31897016	     -3.48583788	    -13.08361369	    -45.72680620	      3.84007407	    -21.17660208	      0.00000000	      4.79980019	     -4.66550098	      7.67046726	    -37.46821742	     24.04182648	    -15.19567243	      0.00000000	    -17.50456124	      3.45308736	     -9.41586333	      0.00000000	      0.00000000	      0.00000000	      0.00000000	      0.00000000	      0.00000000	      0.00000000	      0.00000000
      4.34000000	      6.15765355	     -3.75500389	      8.78978072	      1.54785481	      0.88731104	     -0.22505094	     32.97188258	     -3.91398040	    -12.77226151	    -42.96094207	      2.52588265	    -20.47818362	      0.00000000	      3.21160446	     -4.48606326	      7.47407321	    -37.31897506	     24.40959290	    -15.47419783	      0.00000000	    -18.12094153	      3.73239622	     -9.47272158	      0.00000000	      0.00000000	      0.00000000	      0.00000000	      0.00000000	      0.00000000	      0.00000000	      0.00000000
      4.35000000	      6.02973070	     -3.39218126	      8.93783022	      1.55704812	      0.88508246	     -0.22488757	     32.58001924	     -4.42557439	    -12.36012300	    -40.75191725	      2.15643040	    -19.94234277	      0.00000000	      2.86654740	     -4.21039595	      7.26177795	    -37.72455435	     24.60117756	    -15.57649145	      0.00000000	    -17.88903861	      3.82990559	     -9.44605829	      0.00000000	      0.00000000	      0.00000000	      0.00000000	      0.00000000	      0.00000000	      0.00000000	      0.00000000
      4.36000000	      6.93117087	     -3.08122012	      8.71174422	      1.56741315	      0.88408419	     -0.22426876	     31.17637472	     -4.54288253	    -11.74097767	    -39.22834435	      0.85006597	    -18.62308153	      0.00000000	      1.02709489	     -4.15663763	      6.83790992	    -37.70713241	     25.29980844	    -15.87716501	      0.00000000	    -18.59984385	      4.15488920	     -9.13976133	      0.00000000	      0.00000000	      0.00000000	      0.00000000	      0.00000000	      0.00000000	      0.00000000	      0.00000000
      4.37000000	      7.48835758	     -2.79342541	      8.45615236	      1.57780891	      0.88250487	     -0.22355442	     30.16542872	     -4.51252616	    -10.57763239	    -38.25920138	      0.66413229	    -17.51222160	      0.00000000	     -0.42484842	     -4.09105457	      6.38374979	    -37.67056209	     25.65880475	    -16.03742171	      0.00000000	    -18.88371062	      4.46677519	     -8.89179729	      0.00000000	      0.00000000	      0.00000000	      0.00000000	      0.00000000	      0.00000000	      0.00000000	      0.00000000
      4.38000000	      7.54996651	     -2.58817138	      8.21865281	      1.58826962	      0.87980963	     -0.22269800	     29.70358763	     -4.48638871	     -9.60572307	    -37.75337481	      0.53539199	    -17.03134621	      0.00000000	     -1.22704261	     -3.96123709	      6.25599392	    -37.93033766	     25.96782184	    -16.08179434	      0.00000000	    -18.50319036	      4.73417710	     -8.83880455	      0.00000000	      0.00000000	      0.00000000	      0.00000000	      0.00000000	      0.00000000	      0.00000000	      0.00000000
      4.39000000	      8.29103619	     -2.26444337	      7.40030456	      1.59960917	      0.87770790	     -0.22125714	     28.66732072	     -4.16011442	     -8.14322811	    -37.90951747	      0.67066040	    -17.05345071	      0.00000000	     -3.08344234	     -3.91920675	      5.01277456	    -37.82527895	     26.64963352	    -15.94705965	      0.00000000	    -18.93944334	      4.87866296	     -7.72694004	      0.00000000	      0.00000000	      0.00000000	      0.00000000	      0.00000000	      0.00000000	      0.00000000	      0.00000000
      4.40000000	      8.43514036	     -2.02393375	      6.76871865	      1.61056369	      0.87457626	     -0.21977656	     28.16611386	     -3.86830106	     -6.80487667	    -38.15329142	      0.27126312	    -16.77088740	      0.00000000	     -3.99487180	     -3.75391539	      4.45634227	    -38.16202595	     27.16101644	    -16.18169779	      0.00000000	    -18.66088109	      5.04050321	     -7.48673298	      0.00000000	      0.00000000	      0.00000000	      0.00000000	      0.00000000	      0.00000000	      0.00000000	      0.00000000
      4.41000000	      8.64466265	     -1.77769598	      5.92677789	      1.62192936	      0.87109757	     -0.21781983	     27.60196482	     -3.38657641	     -5.27027218	    -38.74671473	      1.46551911	    -17.59582866	      0.00000000	     -5.15650370	     -3.58908698	      3.59689156	    -38.32991835	     27.64038414	    -16.08905491	      0.00000000	    -18.46814066	      5.09639024	     -6.63803563	      0.00000000	      0.00000000	      0.00000000	      0.00000000	      0.00000000	      0.00000000	      0.00000000	      0.00000000
      4.42000000	      8.58441022	     -1.61060100	      5.13656477	      1.63284447	      0.86723633	     -0.21572167	     27.35429852	     -2.78859556	     -3.94031697	    -39.57293636	      3.72808477	    -19.17043015	      0.00000000	     -5.79861626	     -3.48401276	      2.58982102	    -38.86366472	     28.25397729	    -16.36870870	      0.00000000	    -18.06063743	      5.26749336	     -6.36831894	      0.00000000	      0.00000000	      0.00000000	      0.00000000	      0.00000000	      0.00000000	      0.00000000	      0.00000000
